<?xml version="1.0" encoding="UTF-8" standalone="no"?>
<svg
   width="512"
   height="512"
   viewBox="0 0 24 24"
   version="1.1"
   id="svg1"
   sodipodi:docname="homeSVG.svg"
   inkscape:export-filename="homeSVG.svg"
   inkscape:export-xdpi="96"
   inkscape:export-ydpi="96"
   inkscape:version="1.4.3 (1:1.4.3+202512261035+0d15f75042)"
   xmlns:inkscape="http://www.inkscape.org/namespaces/inkscape"
   xmlns:sodipodi="http://sodipodi.sourceforge.net/DTD/sodipodi-0.dtd"
   xmlns="http://www.w3.org/2000/svg"
   xmlns:svg="http://www.w3.org/2000/svg">
  <defs
     id="defs1" />
  <sodipodi:namedview
     id="namedview1"
     pagecolor="#ffffff"
     bordercolor="#000000"
     borderopacity="0.25"
     inkscape:showpageshadow="2"
     inkscape:pageopacity="0.0"
     inkscape:pagecheckerboard="0"
     inkscape:deskcolor="#d1d1d1"
     inkscape:zoom="1.8535156"
     inkscape:cx="255.73024"
     inkscape:cy="256"
     inkscape:window-width="950"
     inkscape:window-height="1146"
     inkscape:window-x="0"
     inkscape:window-y="0"
     inkscape:window-maximized="1"
     inkscape:current-layer="svg1" />
  <path
     fill="none"
     stroke="#000000"
     stroke-linejoin="round"
     stroke-width="1.5"
     d="M15.29 20.663h3.017a2.194 2.194 0 0 0 2.193-2.194v-6.454a3.3 3.3 0 0 0-1.13-2.48l-5.93-5.166a2.194 2.194 0 0 0-2.88 0L4.63 9.534a3.3 3.3 0 0 0-1.13 2.481v6.454c0 1.212.982 2.194 2.194 2.194h3.29m6.306 0v-6.581c0-.908-.736-1.645-1.645-1.645H10.63c-.909 0-1.645.737-1.645 1.645v6.581m6.306 0H8.984"
     id="path1"
     style="fill:#000000;fill-opacity:0;stroke:#ffffff;stroke-opacity:1" />
</svg>
