<?xml version="1.0" encoding="UTF-8" standalone="no"?>
<svg
   width="512"
   height="512"
   viewBox="0 0 28 28"
   version="1.1"
   id="svg1"
   sodipodi:docname="signatureSVG.svg"
   inkscape:export-filename="signatureSVG.svg"
   inkscape:export-xdpi="96"
   inkscape:export-ydpi="96"
   inkscape:version="1.4.3 (1:1.4.3+202512261035+0d15f75042)"
   xmlns:inkscape="http://www.inkscape.org/namespaces/inkscape"
   xmlns:sodipodi="http://sodipodi.sourceforge.net/DTD/sodipodi-0.dtd"
   xmlns="http://www.w3.org/2000/svg"
   xmlns:svg="http://www.w3.org/2000/svg">
  <defs
     id="defs1" />
  <sodipodi:namedview
     id="namedview1"
     pagecolor="#ffffff"
     bordercolor="#000000"
     borderopacity="0.25"
     inkscape:showpageshadow="2"
     inkscape:pageopacity="0.0"
     inkscape:pagecheckerboard="0"
     inkscape:deskcolor="#d1d1d1"
     inkscape:zoom="1.8535156"
     inkscape:cx="255.73024"
     inkscape:cy="256"
     inkscape:window-width="950"
     inkscape:window-height="1146"
     inkscape:window-x="0"
     inkscape:window-y="0"
     inkscape:window-maximized="1"
     inkscape:current-layer="svg1" />
  <path
     fill="#000000"
     d="m16.48 21.002l.27-.002c1.22 0 1.862.506 2.653 1.704l.393.608c.307.455.499.645.74.745c.433.178.792.09 2.109-.544l.403-.196c.824-.404 1.386-.636 2.02-.795a.75.75 0 1 1 .364 1.456c-.394.098-.772.24-1.267.468l-1.159.557c-1.568.74-2.1.829-3.041.44c-.625-.257-.98-.63-1.5-1.425l-.195-.304c-.602-.948-.905-1.214-1.52-1.214l-.158.004c-.433.026-.714.224-2.582 1.61c-1.742 1.294-3.071 1.911-4.76 1.911c-2.06 0-4.002-.378-5.818-1.135l2.882-.666c.944.2 1.922.301 2.935.301c1.29 0 2.36-.497 3.867-1.615l1.16-.856c1.271-.924 1.554-1.038 2.204-1.052Zm6.298-17.78a4.286 4.286 0 0 1 0 6.06l-1.036 1.036c1.152 1.402 1.11 2.887.04 3.961l-3.001 3.002a.75.75 0 1 1-1.06-1.062l2.998-2.999c.485-.486.542-1.09-.04-1.838L10.086 21.976A2.25 2.25 0 0 1 9 22.577l-6.08 1.404a.75.75 0 0 1-.9-.9l1.403-6.08a2.25 2.25 0 0 1 .601-1.086L16.717 3.222a4.285 4.285 0 0 1 6.06 0Z"
     id="path1"
     style="stroke:#ffffff;stroke-opacity:1;fill:#353535;fill-opacity:0" />
</svg>
